# xmcd
#
# Track frame offsets: 
#        150
#        16807
#        38262
#        60797
#        79950
#        103532
#        132520
#        151920
#        172775
#        198385
#        216917
#        236720
#
# Disc length: 3467 seconds
#
# Revision: 3
# Processed by: cddbd v1.5.2PL0 Copyright (c) Steve Scherf et al.
# Submitted via: ExactAudioCopy v1.0b1
#
DISCID=8c0d890c
DTITLE=Noelle Hampton - Under These Skies
DYEAR=1900
DGENRE=
TTITLE0=Big Mystery
TTITLE1=Goodbye Century
TTITLE2=Suspended
TTITLE3=Leo "A Song For A Ruined Man"
TTITLE4=Little Big Town
TTITLE5=Murder and Mayhem
TTITLE6=The Unfair Fight
TTITLE7=If You're The One
TTITLE8=The Ballad of Georgie
TTITLE9=Vampires
TTITLE10=I Know It's You
TTITLE11=A Life I Never Knew
EXTD=
EXTT0=
EXTT1=
EXTT2=
EXTT3=
EXTT4=
EXTT5=
EXTT6=
EXTT7=
EXTT8=
EXTT9=
EXTT10=
EXTT11=
PLAYORDER=
